<?xml version="1.0" encoding="utf-8"?>
<svg xmlns="http://www.w3.org/2000/svg" xmlns:xlink="http://www.w3.org/1999/xlink" width="528" height="336" viewBox="0 0 2112 1344">
<defs>
  <clipPath id="clip570">
    <rect x="0" y="0" width="2112" height="1344"/>
  </clipPath>
</defs>
<path clip-path="url(#clip570)" d="M0 1344 L2112 1344 L2112 0 L0 0  Z" fill="#ffffff" fill-rule="evenodd" fill-opacity="1"/>
<defs>
  <clipPath id="clip571">
    <rect x="422" y="0" width="1479" height="1344"/>
  </clipPath>
</defs>
<path clip-path="url(#clip570)" d="M183.394 1234.58 L2064.76 1234.58 L2064.76 47.2441 L183.394 47.2441  Z" fill="#ffffff" fill-rule="evenodd" fill-opacity="1"/>
<defs>
  <clipPath id="clip572">
    <rect x="183" y="47" width="1882" height="1188"/>
  </clipPath>
</defs>
<polyline clip-path="url(#clip572)" style="stroke:#000000; stroke-linecap:round; stroke-linejoin:round; stroke-width:2; stroke-opacity:0.1; fill:none" points="236.64,1234.58 236.64,47.2441 "/>
<polyline clip-path="url(#clip572)" style="stroke:#000000; stroke-linecap:round; stroke-linejoin:round; stroke-width:2; stroke-opacity:0.1; fill:none" points="532.452,1234.58 532.452,47.2441 "/>
<polyline clip-path="url(#clip572)" style="stroke:#000000; stroke-linecap:round; stroke-linejoin:round; stroke-width:2; stroke-opacity:0.1; fill:none" points="828.263,1234.58 828.263,47.2441 "/>
<polyline clip-path="url(#clip572)" style="stroke:#000000; stroke-linecap:round; stroke-linejoin:round; stroke-width:2; stroke-opacity:0.1; fill:none" points="1124.07,1234.58 1124.07,47.2441 "/>
<polyline clip-path="url(#clip572)" style="stroke:#000000; stroke-linecap:round; stroke-linejoin:round; stroke-width:2; stroke-opacity:0.1; fill:none" points="1419.89,1234.58 1419.89,47.2441 "/>
<polyline clip-path="url(#clip572)" style="stroke:#000000; stroke-linecap:round; stroke-linejoin:round; stroke-width:2; stroke-opacity:0.1; fill:none" points="1715.7,1234.58 1715.7,47.2441 "/>
<polyline clip-path="url(#clip572)" style="stroke:#000000; stroke-linecap:round; stroke-linejoin:round; stroke-width:2; stroke-opacity:0.1; fill:none" points="2011.51,1234.58 2011.51,47.2441 "/>
<polyline clip-path="url(#clip570)" style="stroke:#000000; stroke-linecap:round; stroke-linejoin:round; stroke-width:4; stroke-opacity:1; fill:none" points="183.394,1234.58 2064.76,1234.58 "/>
<polyline clip-path="url(#clip570)" style="stroke:#000000; stroke-linecap:round; stroke-linejoin:round; stroke-width:4; stroke-opacity:1; fill:none" points="236.64,1234.58 236.64,1215.68 "/>
<polyline clip-path="url(#clip570)" style="stroke:#000000; stroke-linecap:round; stroke-linejoin:round; stroke-width:4; stroke-opacity:1; fill:none" points="532.452,1234.58 532.452,1215.68 "/>
<polyline clip-path="url(#clip570)" style="stroke:#000000; stroke-linecap:round; stroke-linejoin:round; stroke-width:4; stroke-opacity:1; fill:none" points="828.263,1234.58 828.263,1215.68 "/>
<polyline clip-path="url(#clip570)" style="stroke:#000000; stroke-linecap:round; stroke-linejoin:round; stroke-width:4; stroke-opacity:1; fill:none" points="1124.07,1234.58 1124.07,1215.68 "/>
<polyline clip-path="url(#clip570)" style="stroke:#000000; stroke-linecap:round; stroke-linejoin:round; stroke-width:4; stroke-opacity:1; fill:none" points="1419.89,1234.58 1419.89,1215.68 "/>
<polyline clip-path="url(#clip570)" style="stroke:#000000; stroke-linecap:round; stroke-linejoin:round; stroke-width:4; stroke-opacity:1; fill:none" points="1715.7,1234.58 1715.7,1215.68 "/>
<polyline clip-path="url(#clip570)" style="stroke:#000000; stroke-linecap:round; stroke-linejoin:round; stroke-width:4; stroke-opacity:1; fill:none" points="2011.51,1234.58 2011.51,1215.68 "/>
<path clip-path="url(#clip570)" d="M206.108 1277.85 L235.784 1277.85 L235.784 1281.78 L206.108 1281.78 L206.108 1277.85 Z" fill="#000000" fill-rule="nonzero" fill-opacity="1" /><path clip-path="url(#clip570)" d="M260.043 1276.04 Q263.399 1276.76 265.274 1279.03 Q267.172 1281.3 267.172 1284.63 Q267.172 1289.74 263.654 1292.55 Q260.135 1295.35 253.654 1295.35 Q251.478 1295.35 249.163 1294.91 Q246.872 1294.49 244.418 1293.63 L244.418 1289.12 Q246.362 1290.25 248.677 1290.83 Q250.992 1291.41 253.515 1291.41 Q257.913 1291.41 260.205 1289.67 Q262.52 1287.94 262.52 1284.63 Q262.52 1281.57 260.367 1279.86 Q258.237 1278.12 254.418 1278.12 L250.39 1278.12 L250.39 1274.28 L254.603 1274.28 Q258.052 1274.28 259.881 1272.92 Q261.709 1271.53 261.709 1268.93 Q261.709 1266.27 259.811 1264.86 Q257.936 1263.42 254.418 1263.42 Q252.496 1263.42 250.297 1263.84 Q248.098 1264.26 245.459 1265.14 L245.459 1260.97 Q248.122 1260.23 250.436 1259.86 Q252.774 1259.49 254.834 1259.49 Q260.158 1259.49 263.26 1261.92 Q266.362 1264.33 266.362 1268.45 Q266.362 1271.32 264.719 1273.31 Q263.075 1275.28 260.043 1276.04 Z" fill="#000000" fill-rule="nonzero" fill-opacity="1" /><path clip-path="url(#clip570)" d="M502.394 1277.85 L532.07 1277.85 L532.07 1281.78 L502.394 1281.78 L502.394 1277.85 Z" fill="#000000" fill-rule="nonzero" fill-opacity="1" /><path clip-path="url(#clip570)" d="M546.19 1290.74 L562.509 1290.74 L562.509 1294.67 L540.565 1294.67 L540.565 1290.74 Q543.227 1287.99 547.81 1283.36 Q552.417 1278.7 553.597 1277.36 Q555.843 1274.84 556.722 1273.1 Q557.625 1271.34 557.625 1269.65 Q557.625 1266.9 555.681 1265.16 Q553.759 1263.42 550.658 1263.42 Q548.459 1263.42 546.005 1264.19 Q543.574 1264.95 540.797 1266.5 L540.797 1261.78 Q543.621 1260.65 546.074 1260.07 Q548.528 1259.49 550.565 1259.49 Q555.935 1259.49 559.13 1262.17 Q562.324 1264.86 562.324 1269.35 Q562.324 1271.48 561.514 1273.4 Q560.727 1275.3 558.621 1277.89 Q558.042 1278.56 554.94 1281.78 Q551.838 1284.98 546.19 1290.74 Z" fill="#000000" fill-rule="nonzero" fill-opacity="1" /><path clip-path="url(#clip570)" d="M798.02 1277.85 L827.696 1277.85 L827.696 1281.78 L798.02 1281.78 L798.02 1277.85 Z" fill="#000000" fill-rule="nonzero" fill-opacity="1" /><path clip-path="url(#clip570)" d="M838.599 1290.74 L846.238 1290.74 L846.238 1264.37 L837.928 1266.04 L837.928 1261.78 L846.191 1260.11 L850.867 1260.11 L850.867 1290.74 L858.506 1290.74 L858.506 1294.67 L838.599 1294.67 L838.599 1290.74 Z" fill="#000000" fill-rule="nonzero" fill-opacity="1" /><path clip-path="url(#clip570)" d="M1124.07 1263.19 Q1120.46 1263.19 1118.64 1266.76 Q1116.83 1270.3 1116.83 1277.43 Q1116.83 1284.54 1118.64 1288.1 Q1120.46 1291.64 1124.07 1291.64 Q1127.71 1291.64 1129.51 1288.1 Q1131.34 1284.54 1131.34 1277.43 Q1131.34 1270.3 1129.51 1266.76 Q1127.71 1263.19 1124.07 1263.19 M1124.07 1259.49 Q1129.89 1259.49 1132.94 1264.1 Q1136.02 1268.68 1136.02 1277.43 Q1136.02 1286.16 1132.94 1290.76 Q1129.89 1295.35 1124.07 1295.35 Q1118.26 1295.35 1115.19 1290.76 Q1112.13 1286.16 1112.13 1277.43 Q1112.13 1268.68 1115.19 1264.1 Q1118.26 1259.49 1124.07 1259.49 Z" fill="#000000" fill-rule="nonzero" fill-opacity="1" /><path clip-path="url(#clip570)" d="M1410.27 1290.74 L1417.91 1290.74 L1417.91 1264.37 L1409.6 1266.04 L1409.6 1261.78 L1417.86 1260.11 L1422.54 1260.11 L1422.54 1290.74 L1430.18 1290.74 L1430.18 1294.67 L1410.27 1294.67 L1410.27 1290.74 Z" fill="#000000" fill-rule="nonzero" fill-opacity="1" /><path clip-path="url(#clip570)" d="M1710.35 1290.74 L1726.67 1290.74 L1726.67 1294.67 L1704.73 1294.67 L1704.73 1290.74 Q1707.39 1287.99 1711.97 1283.36 Q1716.58 1278.7 1717.76 1277.36 Q1720 1274.84 1720.88 1273.1 Q1721.79 1271.34 1721.79 1269.65 Q1721.79 1266.9 1719.84 1265.16 Q1717.92 1263.42 1714.82 1263.42 Q1712.62 1263.42 1710.17 1264.19 Q1707.74 1264.95 1704.96 1266.5 L1704.96 1261.78 Q1707.78 1260.65 1710.24 1260.07 Q1712.69 1259.49 1714.73 1259.49 Q1720.1 1259.49 1723.29 1262.17 Q1726.49 1264.86 1726.49 1269.35 Q1726.49 1271.48 1725.67 1273.4 Q1724.89 1275.3 1722.78 1277.89 Q1722.2 1278.56 1719.1 1281.78 Q1716 1284.98 1710.35 1290.74 Z" fill="#000000" fill-rule="nonzero" fill-opacity="1" /><path clip-path="url(#clip570)" d="M2015.76 1276.04 Q2019.11 1276.76 2020.99 1279.03 Q2022.89 1281.3 2022.89 1284.63 Q2022.89 1289.74 2019.37 1292.55 Q2015.85 1295.35 2009.37 1295.35 Q2007.19 1295.35 2004.88 1294.91 Q2002.59 1294.49 2000.13 1293.63 L2000.13 1289.12 Q2002.08 1290.25 2004.39 1290.83 Q2006.71 1291.41 2009.23 1291.41 Q2013.63 1291.41 2015.92 1289.67 Q2018.23 1287.94 2018.23 1284.63 Q2018.23 1281.57 2016.08 1279.86 Q2013.95 1278.12 2010.13 1278.12 L2006.1 1278.12 L2006.1 1274.28 L2010.32 1274.28 Q2013.77 1274.28 2015.6 1272.92 Q2017.42 1271.53 2017.42 1268.93 Q2017.42 1266.27 2015.53 1264.86 Q2013.65 1263.42 2010.13 1263.42 Q2008.21 1263.42 2006.01 1263.84 Q2003.81 1264.26 2001.17 1265.14 L2001.17 1260.97 Q2003.84 1260.23 2006.15 1259.86 Q2008.49 1259.49 2010.55 1259.49 Q2015.87 1259.49 2018.98 1261.92 Q2022.08 1264.33 2022.08 1268.45 Q2022.08 1271.32 2020.43 1273.31 Q2018.79 1275.28 2015.76 1276.04 Z" fill="#000000" fill-rule="nonzero" fill-opacity="1" /><polyline clip-path="url(#clip572)" style="stroke:#000000; stroke-linecap:round; stroke-linejoin:round; stroke-width:2; stroke-opacity:0.1; fill:none" points="183.394,1202.61 2064.76,1202.61 "/>
<polyline clip-path="url(#clip572)" style="stroke:#000000; stroke-linecap:round; stroke-linejoin:round; stroke-width:2; stroke-opacity:0.1; fill:none" points="183.394,922.047 2064.76,922.047 "/>
<polyline clip-path="url(#clip572)" style="stroke:#000000; stroke-linecap:round; stroke-linejoin:round; stroke-width:2; stroke-opacity:0.1; fill:none" points="183.394,641.488 2064.76,641.488 "/>
<polyline clip-path="url(#clip572)" style="stroke:#000000; stroke-linecap:round; stroke-linejoin:round; stroke-width:2; stroke-opacity:0.1; fill:none" points="183.394,360.929 2064.76,360.929 "/>
<polyline clip-path="url(#clip572)" style="stroke:#000000; stroke-linecap:round; stroke-linejoin:round; stroke-width:2; stroke-opacity:0.1; fill:none" points="183.394,80.3697 2064.76,80.3697 "/>
<polyline clip-path="url(#clip570)" style="stroke:#000000; stroke-linecap:round; stroke-linejoin:round; stroke-width:4; stroke-opacity:1; fill:none" points="183.394,1234.58 183.394,47.2441 "/>
<polyline clip-path="url(#clip570)" style="stroke:#000000; stroke-linecap:round; stroke-linejoin:round; stroke-width:4; stroke-opacity:1; fill:none" points="183.394,1202.61 202.292,1202.61 "/>
<polyline clip-path="url(#clip570)" style="stroke:#000000; stroke-linecap:round; stroke-linejoin:round; stroke-width:4; stroke-opacity:1; fill:none" points="183.394,922.047 202.292,922.047 "/>
<polyline clip-path="url(#clip570)" style="stroke:#000000; stroke-linecap:round; stroke-linejoin:round; stroke-width:4; stroke-opacity:1; fill:none" points="183.394,641.488 202.292,641.488 "/>
<polyline clip-path="url(#clip570)" style="stroke:#000000; stroke-linecap:round; stroke-linejoin:round; stroke-width:4; stroke-opacity:1; fill:none" points="183.394,360.929 202.292,360.929 "/>
<polyline clip-path="url(#clip570)" style="stroke:#000000; stroke-linecap:round; stroke-linejoin:round; stroke-width:4; stroke-opacity:1; fill:none" points="183.394,80.3697 202.292,80.3697 "/>
<path clip-path="url(#clip570)" d="M64.3765 1188.4 Q60.7654 1188.4 58.9367 1191.97 Q57.1312 1195.51 57.1312 1202.64 Q57.1312 1209.75 58.9367 1213.31 Q60.7654 1216.85 64.3765 1216.85 Q68.0107 1216.85 69.8163 1213.31 Q71.645 1209.75 71.645 1202.64 Q71.645 1195.51 69.8163 1191.97 Q68.0107 1188.4 64.3765 1188.4 M64.3765 1184.7 Q70.1867 1184.7 73.2422 1189.31 Q76.3209 1193.89 76.3209 1202.64 Q76.3209 1211.37 73.2422 1215.97 Q70.1867 1220.56 64.3765 1220.56 Q58.5664 1220.56 55.4877 1215.97 Q52.4321 1211.37 52.4321 1202.64 Q52.4321 1193.89 55.4877 1189.31 Q58.5664 1184.7 64.3765 1184.7 Z" fill="#000000" fill-rule="nonzero" fill-opacity="1" /><path clip-path="url(#clip570)" d="M84.5384 1214.01 L89.4227 1214.01 L89.4227 1219.89 L84.5384 1219.89 L84.5384 1214.01 Z" fill="#000000" fill-rule="nonzero" fill-opacity="1" /><path clip-path="url(#clip570)" d="M109.608 1188.4 Q105.997 1188.4 104.168 1191.97 Q102.362 1195.51 102.362 1202.64 Q102.362 1209.75 104.168 1213.31 Q105.997 1216.85 109.608 1216.85 Q113.242 1216.85 115.048 1213.31 Q116.876 1209.75 116.876 1202.64 Q116.876 1195.51 115.048 1191.97 Q113.242 1188.4 109.608 1188.4 M109.608 1184.7 Q115.418 1184.7 118.473 1189.31 Q121.552 1193.89 121.552 1202.64 Q121.552 1211.37 118.473 1215.97 Q115.418 1220.56 109.608 1220.56 Q103.798 1220.56 100.719 1215.97 Q97.6634 1211.37 97.6634 1202.64 Q97.6634 1193.89 100.719 1189.31 Q103.798 1184.7 109.608 1184.7 Z" fill="#000000" fill-rule="nonzero" fill-opacity="1" /><path clip-path="url(#clip570)" d="M139.77 1188.4 Q136.159 1188.4 134.33 1191.97 Q132.524 1195.51 132.524 1202.64 Q132.524 1209.75 134.33 1213.31 Q136.159 1216.85 139.77 1216.85 Q143.404 1216.85 145.209 1213.31 Q147.038 1209.75 147.038 1202.64 Q147.038 1195.51 145.209 1191.97 Q143.404 1188.4 139.77 1188.4 M139.77 1184.7 Q145.58 1184.7 148.635 1189.31 Q151.714 1193.89 151.714 1202.64 Q151.714 1211.37 148.635 1215.97 Q145.58 1220.56 139.77 1220.56 Q133.959 1220.56 130.881 1215.97 Q127.825 1211.37 127.825 1202.64 Q127.825 1193.89 130.881 1189.31 Q133.959 1184.7 139.77 1184.7 Z" fill="#000000" fill-rule="nonzero" fill-opacity="1" /><path clip-path="url(#clip570)" d="M65.3719 907.845 Q61.7608 907.845 59.9321 911.41 Q58.1265 914.952 58.1265 922.081 Q58.1265 929.188 59.9321 932.753 Q61.7608 936.294 65.3719 936.294 Q69.0061 936.294 70.8117 932.753 Q72.6404 929.188 72.6404 922.081 Q72.6404 914.952 70.8117 911.41 Q69.0061 907.845 65.3719 907.845 M65.3719 904.142 Q71.182 904.142 74.2376 908.748 Q77.3163 913.331 77.3163 922.081 Q77.3163 930.808 74.2376 935.415 Q71.182 939.998 65.3719 939.998 Q59.5617 939.998 56.483 935.415 Q53.4275 930.808 53.4275 922.081 Q53.4275 913.331 56.483 908.748 Q59.5617 904.142 65.3719 904.142 Z" fill="#000000" fill-rule="nonzero" fill-opacity="1" /><path clip-path="url(#clip570)" d="M85.5338 933.447 L90.418 933.447 L90.418 939.327 L85.5338 939.327 L85.5338 933.447 Z" fill="#000000" fill-rule="nonzero" fill-opacity="1" /><path clip-path="url(#clip570)" d="M104.631 935.392 L120.95 935.392 L120.95 939.327 L99.006 939.327 L99.006 935.392 Q101.668 932.637 106.251 928.007 Q110.858 923.355 112.038 922.012 Q114.284 919.489 115.163 917.753 Q116.066 915.993 116.066 914.304 Q116.066 911.549 114.122 909.813 Q112.2 908.077 109.098 908.077 Q106.899 908.077 104.446 908.841 Q102.015 909.605 99.2374 911.156 L99.2374 906.433 Q102.061 905.299 104.515 904.72 Q106.969 904.142 109.006 904.142 Q114.376 904.142 117.571 906.827 Q120.765 909.512 120.765 914.003 Q120.765 916.132 119.955 918.054 Q119.168 919.952 117.061 922.544 Q116.483 923.216 113.381 926.433 Q110.279 929.628 104.631 935.392 Z" fill="#000000" fill-rule="nonzero" fill-opacity="1" /><path clip-path="url(#clip570)" d="M130.811 904.767 L149.168 904.767 L149.168 908.702 L135.094 908.702 L135.094 917.174 Q136.112 916.827 137.131 916.665 Q138.149 916.48 139.168 916.48 Q144.955 916.48 148.334 919.651 Q151.714 922.822 151.714 928.239 Q151.714 933.817 148.242 936.919 Q144.77 939.998 138.45 939.998 Q136.274 939.998 134.006 939.628 Q131.76 939.257 129.353 938.516 L129.353 933.817 Q131.436 934.952 133.659 935.507 Q135.881 936.063 138.358 936.063 Q142.362 936.063 144.7 933.956 Q147.038 931.85 147.038 928.239 Q147.038 924.628 144.7 922.521 Q142.362 920.415 138.358 920.415 Q136.483 920.415 134.608 920.831 Q132.756 921.248 130.811 922.128 L130.811 904.767 Z" fill="#000000" fill-rule="nonzero" fill-opacity="1" /><path clip-path="url(#clip570)" d="M64.3765 627.286 Q60.7654 627.286 58.9367 630.851 Q57.1312 634.393 57.1312 641.522 Q57.1312 648.629 58.9367 652.194 Q60.7654 655.735 64.3765 655.735 Q68.0107 655.735 69.8163 652.194 Q71.645 648.629 71.645 641.522 Q71.645 634.393 69.8163 630.851 Q68.0107 627.286 64.3765 627.286 M64.3765 623.583 Q70.1867 623.583 73.2422 628.189 Q76.3209 632.772 76.3209 641.522 Q76.3209 650.249 73.2422 654.856 Q70.1867 659.439 64.3765 659.439 Q58.5664 659.439 55.4877 654.856 Q52.4321 650.249 52.4321 641.522 Q52.4321 632.772 55.4877 628.189 Q58.5664 623.583 64.3765 623.583 Z" fill="#000000" fill-rule="nonzero" fill-opacity="1" /><path clip-path="url(#clip570)" d="M84.5384 652.888 L89.4227 652.888 L89.4227 658.768 L84.5384 658.768 L84.5384 652.888 Z" fill="#000000" fill-rule="nonzero" fill-opacity="1" /><path clip-path="url(#clip570)" d="M99.6541 624.208 L118.01 624.208 L118.01 628.143 L103.936 628.143 L103.936 636.615 Q104.955 636.268 105.974 636.106 Q106.992 635.921 108.011 635.921 Q113.798 635.921 117.177 639.092 Q120.557 642.263 120.557 647.68 Q120.557 653.258 117.085 656.36 Q113.612 659.439 107.293 659.439 Q105.117 659.439 102.849 659.069 Q100.603 658.698 98.1958 657.957 L98.1958 653.258 Q100.279 654.393 102.501 654.948 Q104.724 655.504 107.2 655.504 Q111.205 655.504 113.543 653.397 Q115.881 651.291 115.881 647.68 Q115.881 644.069 113.543 641.962 Q111.205 639.856 107.2 639.856 Q105.325 639.856 103.45 640.272 Q101.599 640.689 99.6541 641.569 L99.6541 624.208 Z" fill="#000000" fill-rule="nonzero" fill-opacity="1" /><path clip-path="url(#clip570)" d="M139.77 627.286 Q136.159 627.286 134.33 630.851 Q132.524 634.393 132.524 641.522 Q132.524 648.629 134.33 652.194 Q136.159 655.735 139.77 655.735 Q143.404 655.735 145.209 652.194 Q147.038 648.629 147.038 641.522 Q147.038 634.393 145.209 630.851 Q143.404 627.286 139.77 627.286 M139.77 623.583 Q145.58 623.583 148.635 628.189 Q151.714 632.772 151.714 641.522 Q151.714 650.249 148.635 654.856 Q145.58 659.439 139.77 659.439 Q133.959 659.439 130.881 654.856 Q127.825 650.249 127.825 641.522 Q127.825 632.772 130.881 628.189 Q133.959 623.583 139.77 623.583 Z" fill="#000000" fill-rule="nonzero" fill-opacity="1" /><path clip-path="url(#clip570)" d="M65.3719 346.727 Q61.7608 346.727 59.9321 350.292 Q58.1265 353.834 58.1265 360.963 Q58.1265 368.07 59.9321 371.635 Q61.7608 375.176 65.3719 375.176 Q69.0061 375.176 70.8117 371.635 Q72.6404 368.07 72.6404 360.963 Q72.6404 353.834 70.8117 350.292 Q69.0061 346.727 65.3719 346.727 M65.3719 343.024 Q71.182 343.024 74.2376 347.63 Q77.3163 352.213 77.3163 360.963 Q77.3163 369.69 74.2376 374.297 Q71.182 378.88 65.3719 378.88 Q59.5617 378.88 56.483 374.297 Q53.4275 369.69 53.4275 360.963 Q53.4275 352.213 56.483 347.63 Q59.5617 343.024 65.3719 343.024 Z" fill="#000000" fill-rule="nonzero" fill-opacity="1" /><path clip-path="url(#clip570)" d="M85.5338 372.329 L90.418 372.329 L90.418 378.209 L85.5338 378.209 L85.5338 372.329 Z" fill="#000000" fill-rule="nonzero" fill-opacity="1" /><path clip-path="url(#clip570)" d="M99.4226 343.649 L121.645 343.649 L121.645 345.639 L109.098 378.209 L104.214 378.209 L116.02 347.584 L99.4226 347.584 L99.4226 343.649 Z" fill="#000000" fill-rule="nonzero" fill-opacity="1" /><path clip-path="url(#clip570)" d="M130.811 343.649 L149.168 343.649 L149.168 347.584 L135.094 347.584 L135.094 356.056 Q136.112 355.709 137.131 355.547 Q138.149 355.362 139.168 355.362 Q144.955 355.362 148.334 358.533 Q151.714 361.704 151.714 367.121 Q151.714 372.699 148.242 375.801 Q144.77 378.88 138.45 378.88 Q136.274 378.88 134.006 378.51 Q131.76 378.139 129.353 377.398 L129.353 372.699 Q131.436 373.834 133.659 374.389 Q135.881 374.945 138.358 374.945 Q142.362 374.945 144.7 372.838 Q147.038 370.732 147.038 367.121 Q147.038 363.51 144.7 361.403 Q142.362 359.297 138.358 359.297 Q136.483 359.297 134.608 359.713 Q132.756 360.13 130.811 361.01 L130.811 343.649 Z" fill="#000000" fill-rule="nonzero" fill-opacity="1" /><path clip-path="url(#clip570)" d="M55.1867 93.7145 L62.8256 93.7145 L62.8256 67.3489 L54.5154 69.0156 L54.5154 64.7563 L62.7793 63.0897 L67.4552 63.0897 L67.4552 93.7145 L75.094 93.7145 L75.094 97.6497 L55.1867 97.6497 L55.1867 93.7145 Z" fill="#000000" fill-rule="nonzero" fill-opacity="1" /><path clip-path="url(#clip570)" d="M84.5384 91.7701 L89.4227 91.7701 L89.4227 97.6497 L84.5384 97.6497 L84.5384 91.7701 Z" fill="#000000" fill-rule="nonzero" fill-opacity="1" /><path clip-path="url(#clip570)" d="M109.608 66.1684 Q105.997 66.1684 104.168 69.7332 Q102.362 73.2748 102.362 80.4044 Q102.362 87.5109 104.168 91.0756 Q105.997 94.6173 109.608 94.6173 Q113.242 94.6173 115.048 91.0756 Q116.876 87.5109 116.876 80.4044 Q116.876 73.2748 115.048 69.7332 Q113.242 66.1684 109.608 66.1684 M109.608 62.4647 Q115.418 62.4647 118.473 67.0711 Q121.552 71.6545 121.552 80.4044 Q121.552 89.1312 118.473 93.7377 Q115.418 98.321 109.608 98.321 Q103.798 98.321 100.719 93.7377 Q97.6634 89.1312 97.6634 80.4044 Q97.6634 71.6545 100.719 67.0711 Q103.798 62.4647 109.608 62.4647 Z" fill="#000000" fill-rule="nonzero" fill-opacity="1" /><path clip-path="url(#clip570)" d="M139.77 66.1684 Q136.159 66.1684 134.33 69.7332 Q132.524 73.2748 132.524 80.4044 Q132.524 87.5109 134.33 91.0756 Q136.159 94.6173 139.77 94.6173 Q143.404 94.6173 145.209 91.0756 Q147.038 87.5109 147.038 80.4044 Q147.038 73.2748 145.209 69.7332 Q143.404 66.1684 139.77 66.1684 M139.77 62.4647 Q145.58 62.4647 148.635 67.0711 Q151.714 71.6545 151.714 80.4044 Q151.714 89.1312 148.635 93.7377 Q145.58 98.321 139.77 98.321 Q133.959 98.321 130.881 93.7377 Q127.825 89.1312 127.825 80.4044 Q127.825 71.6545 130.881 67.0711 Q133.959 62.4647 139.77 62.4647 Z" fill="#000000" fill-rule="nonzero" fill-opacity="1" /><polyline clip-path="url(#clip572)" style="stroke:#009af9; stroke-linecap:round; stroke-linejoin:round; stroke-width:4; stroke-opacity:1; fill:none" points="236.64,166.003 239.598,640.557 242.556,902.575 245.514,379.37 248.473,127.109 251.431,687.937 254.389,763.434 257.347,1095.68 260.305,533.437 263.263,924.057 266.221,444.222 269.179,1071.52 272.137,265.003 275.096,186.331 278.054,1000.74 281.012,221.414 283.97,1107.26 286.928,132.856 289.886,993.45 292.844,844.464 295.802,386.538 298.761,563.12 301.719,807.67 304.677,1064.78 307.635,907.952 310.593,1088.04 313.551,319.736 316.509,121.005 319.467,859.114 322.425,472.405 325.384,192.402 328.342,531.65 331.3,705.17 334.258,411.253 337.216,117.756 340.174,816.073 343.132,498.565 346.09,1097.28 349.049,893.211 352.007,136.938 354.965,901.238 357.923,447.783 360.881,1164.96 363.839,1195.02 366.797,892.105 369.755,127.879 372.713,948.36 375.672,659.757 378.63,1093.53 381.588,798.621 384.546,200.455 387.504,508.65 390.462,180.133 393.42,828.536 396.378,1130.25 399.336,166.201 402.295,981.523 405.253,877.22 408.211,587.668 411.169,812.826 414.127,1018.16 417.085,737.426 420.043,600.122 423.001,991.315 425.96,697.64 428.918,986.873 431.876,103.905 434.834,1118.66 437.792,876.794 440.75,855.582 443.708,1150.26 446.666,259.012 449.624,562.055 452.583,1093.65 455.541,1127.2 458.499,303.001 461.457,1132.7 464.415,688.461 467.373,431.148 470.331,503.934 473.289,889.151 476.248,1182.01 479.206,965.941 482.164,136.06 485.122,210.006 488.08,318.035 491.038,925.227 493.996,394.562 496.954,189.049 499.912,1200.79 502.871,192.081 505.829,991.307 508.787,1107.04 511.745,251.638 514.703,502.019 517.661,140.838 520.619,272.04 523.577,777.919 526.535,127.992 529.494,662.321 532.452,482.118 535.41,680.717 538.368,760.958 541.326,259.006 544.284,940.698 547.242,1067.61 550.2,872.33 553.159,272.893 556.117,483.938 559.075,597.43 562.033,340.618 564.991,618.298 567.949,528.934 570.907,330.853 573.865,1056.17 576.823,493.766 579.782,1182.94 582.74,299.786 585.698,1185.93 588.656,540.142 591.614,612.546 594.572,593.031 597.53,478.018 600.488,1155.09 603.447,480.653 606.405,608.769 609.363,104.026 612.321,572.954 615.279,670.797 618.237,642.441 621.195,392.196 624.153,1122.74 627.111,574.309 630.07,268.884 633.028,1147.37 635.986,733.272 638.944,1036.88 641.902,110.96 644.86,521.196 647.818,1019.25 650.776,145.889 653.734,230.794 656.693,82.8131 659.651,852.469 662.609,273.713 665.567,946.549 668.525,326.997 671.483,777.105 674.441,823.53 677.399,628.689 680.358,586.618 683.316,1135.82 686.274,649.547 689.232,697.098 692.19,992.326 695.148,434.961 698.106,346.583 701.064,251.172 704.022,268.216 706.981,250.775 709.939,252.439 712.897,1200.97 715.855,958.396 718.813,567.772 721.771,583.192 724.729,988.732 727.687,1042.39 730.645,781.279 733.604,961.035 736.562,846.24 739.52,937.485 742.478,595.665 745.436,612.735 748.394,926.966 751.352,1147.73 754.31,826.505 757.269,347.856 760.227,885.612 763.185,1148.46 766.143,925.041 769.101,407.202 772.059,308.357 775.017,747.016 777.975,727 780.933,1141.74 783.892,938.412 786.85,731.734 789.808,432.515 792.766,917.642 795.724,92.4017 798.682,104.022 801.64,464.193 804.598,378.003 807.557,1076.91 810.515,829.407 813.473,953.112 816.431,497.469 819.389,202.694 822.347,814.571 825.305,467.478 828.263,965.222 831.221,721.885 834.18,637.589 837.138,406.329 840.096,279.817 843.054,398.905 846.012,487.124 848.97,557.24 851.928,334.574 854.886,628.89 857.844,239.589 860.803,1034.01 863.761,720.897 866.719,401.363 869.677,477.55 872.635,99.0462 875.593,839.89 878.551,576.721 881.509,1172.38 884.468,475.365 887.426,241.608 890.384,774.798 893.342,1192.82 896.3,912.876 899.258,304.091 902.216,723.394 905.174,457.066 908.132,1011.95 911.091,134.211 914.049,136.311 917.007,496.675 919.965,312.062 922.923,956.261 925.881,638.589 928.839,257.879 931.797,108.85 934.756,983.793 937.714,656.377 940.672,132.244 943.63,1148.55 946.588,1132.69 949.546,1128.67 952.504,583.742 955.462,1029.54 958.42,102.197 961.379,758.767 964.337,827.307 967.295,884.876 970.253,703.425 973.211,854.988 976.169,1057.92 979.127,746.006 982.085,545.607 985.043,244.475 988.002,255.572 990.96,91.2983 993.918,217.434 996.876,363.013 999.834,869.514 1002.79,852.91 1005.75,953.39 1008.71,158.432 1011.67,796.065 1014.62,184.866 1017.58,334.576 1020.54,290.129 1023.5,775.906 1026.46,608.966 1029.42,903.52 1032.37,993.534 1035.33,1123.97 1038.29,1163.19 1041.25,938.714 1044.21,883.151 1047.16,1170.26 1050.12,790.808 1053.08,585.596 1056.04,403.233 1059,188.319 1061.95,813.77 1064.91,699.66 1067.87,422.66 1070.83,826.297 1073.79,713.911 1076.75,641.701 1079.7,303.178 1082.66,846.174 1085.62,379.039 1088.58,662.113 1091.54,1188.32 1094.49,897.235 1097.45,179.322 1100.41,348.045 1103.37,98.0984 1106.33,1095.99 1109.28,708.006 1112.24,630.785 1115.2,665.954 1118.16,450.888 1121.12,201.494 1124.07,246.12 1127.03,1132.12 1129.99,1050.01 1132.95,985.552 1135.91,351.002 1138.87,298.55 1141.82,891.504 1144.78,179.861 1147.74,868.59 1150.7,185.277 1153.66,778.61 1156.61,92.5213 1159.57,299.705 1162.53,1132.28 1165.49,178.983 1168.45,147.617 1171.4,751.604 1174.36,450.616 1177.32,536.887 1180.28,545.253 1183.24,327.131 1186.2,607.292 1189.15,502.127 1192.11,996.073 1195.07,86.9562 1198.03,361.99 1200.99,973.525 1203.94,164.853 1206.9,774.689 1209.86,499.399 1212.82,1179.33 1215.78,1172.99 1218.73,585.894 1221.69,150.343 1224.65,842.664 1227.61,877.628 1230.57,1133.5 1233.53,230.567 1236.48,143.367 1239.44,732.053 1242.4,1195.47 1245.36,160.925 1248.32,328.66 1251.27,80.8479 1254.23,101.938 1257.19,616.139 1260.15,953.519 1263.11,929.554 1266.06,1100.79 1269.02,232.497 1271.98,424.814 1274.94,816.191 1277.9,589.16 1280.86,687.781 1283.81,1090.64 1286.77,654.965 1289.73,939.486 1292.69,267.255 1295.65,579.4 1298.6,775.842 1301.56,401.261 1304.52,529.936 1307.48,688.168 1310.44,577.669 1313.39,416.007 1316.35,1097.05 1319.31,242.249 1322.27,768.369 1325.23,834.813 1328.18,450.235 1331.14,174.257 1334.1,117.21 1337.06,964.15 1340.02,758.918 1342.98,106.184 1345.93,390.807 1348.89,769.535 1351.85,322.433 1354.81,497.811 1357.77,1100.84 1360.72,297.512 1363.68,322.119 1366.64,891.13 1369.6,669.808 1372.56,1183.81 1375.51,824.872 1378.47,548.162 1381.43,184.185 1384.39,1105.13 1387.35,975.089 1390.31,1043.09 1393.26,304.191 1396.22,205.462 1399.18,458.456 1402.14,383.386 1405.1,142.025 1408.05,912.023 1411.01,695.556 1413.97,1026.67 1416.93,997.938 1419.89,988.301 1422.84,619.601 1425.8,851.248 1428.76,621.583 1431.72,615.806 1434.68,1199.33 1437.64,1195.55 1440.59,755.353 1443.55,823.389 1446.51,257.392 1449.47,793.306 1452.43,742.353 1455.38,950.934 1458.34,630.26 1461.3,539.632 1464.26,973.757 1467.22,777.466 1470.17,586.443 1473.13,412.608 1476.09,1097.87 1479.05,472.656 1482.01,354.975 1484.97,755.387 1487.92,1015.95 1490.88,144.305 1493.84,330.686 1496.8,816.86 1499.76,725.091 1502.71,862.544 1505.67,725.817 1508.63,282.47 1511.59,656.129 1514.55,710.184 1517.5,491.818 1520.46,788.777 1523.42,1171.21 1526.38,679.632 1529.34,1107.46 1532.29,560.029 1535.25,579.206 1538.21,1153.59 1541.17,1010.03 1544.13,1092.32 1547.09,413.733 1550.04,119.158 1553,649.219 1555.96,1154.13 1558.92,410.486 1561.88,271.655 1564.83,1094.7 1567.79,663.456 1570.75,1030.23 1573.71,167.38 1576.67,858.715 1579.62,449.358 1582.58,360.133 1585.54,742.997 1588.5,503.518 1591.46,1119.55 1594.42,1048.98 1597.37,96.2711 1600.33,700.148 1603.29,804.396 1606.25,291.164 1609.21,921.828 1612.16,363.239 1615.12,974.259 1618.08,432.006 1621.04,92.3116 1624,411.871 1626.95,858.767 1629.91,410.763 1632.87,814.37 1635.83,1023.13 1638.79,1076.97 1641.75,1080.88 1644.7,627.916 1647.66,103.718 1650.62,350.61 1653.58,1105.15 1656.54,1114.29 1659.49,347.029 1662.45,667.18 1665.41,1130.32 1668.37,1090.06 1671.33,508.898 1674.28,1049.59 1677.24,302.149 1680.2,1097.26 1683.16,645.57 1686.12,920.816 1689.08,848.644 1692.03,1026.82 1694.99,523.182 1697.95,758.853 1700.91,1195.06 1703.87,1003.12 1706.82,977.575 1709.78,112.911 1712.74,721.919 1715.7,603.777 1718.66,920.706 1721.61,975.541 1724.57,383.385 1727.53,461.361 1730.49,383.236 1733.45,86.0528 1736.41,613.791 1739.36,191.548 1742.32,956.629 1745.28,153.111 1748.24,377.941 1751.2,241.384 1754.15,1063.68 1757.11,878.311 1760.07,609.858 1763.03,706.788 1765.99,126.276 1768.94,639.497 1771.9,252.392 1774.86,377.991 1777.82,308.544 1780.78,1078.56 1783.73,1011.79 1786.69,135.55 1789.65,960.034 1792.61,564.719 1795.57,1061.68 1798.53,1184.1 1801.48,664.429 1804.44,499.312 1807.4,1074.08 1810.36,953.969 1813.32,546.684 1816.27,992.977 1819.23,396.1 1822.19,98.0104 1825.15,554.99 1828.11,928.19 1831.06,830.647 1834.02,1193.69 1836.98,960.677 1839.94,954.04 1842.9,774.014 1845.86,654.604 1848.81,151.837 1851.77,1053.99 1854.73,911.051 1857.69,180.289 1860.65,390.645 1863.6,176.679 1866.56,1007.2 1869.52,512.115 1872.48,1069.84 1875.44,533.959 1878.39,118.222 1881.35,218.358 1884.31,730.267 1887.27,293.999 1890.23,836.627 1893.19,298.028 1896.14,649.798 1899.1,285.854 1902.06,923.108 1905.02,387.073 1907.98,1030.4 1910.93,1032.63 1913.89,459.551 1916.85,515.395 1919.81,873.118 1922.77,452.64 1925.72,545.439 1928.68,741.37 1931.64,956.161 1934.6,1014.01 1937.56,970.113 1940.52,693.089 1943.47,1165.05 1946.43,289.355 1949.39,562.267 1952.35,560.667 1955.31,1107.09 1958.26,642.355 1961.22,800.958 1964.18,715.04 1967.14,971.107 1970.1,183.082 1973.05,361.272 1976.01,351.379 1978.97,1047.75 1981.93,1169.62 1984.89,832.703 1987.84,1012.33 1990.8,785.628 1993.76,121.34 1996.72,457.338 1999.68,270.928 2002.64,464.128 2005.59,430.325 2008.55,205.457 2011.51,557.837 "/>
<path clip-path="url(#clip570)" d="M1761.48 190.502 L2002.04 190.502 L2002.04 86.8219 L1761.48 86.8219  Z" fill="#ffffff" fill-rule="evenodd" fill-opacity="1"/>
<polyline clip-path="url(#clip570)" style="stroke:#000000; stroke-linecap:round; stroke-linejoin:round; stroke-width:4; stroke-opacity:1; fill:none" points="1761.48,190.502 2002.04,190.502 2002.04,86.8219 1761.48,86.8219 1761.48,190.502 "/>
<polyline clip-path="url(#clip570)" style="stroke:#009af9; stroke-linecap:round; stroke-linejoin:round; stroke-width:4; stroke-opacity:1; fill:none" points="1782.38,138.662 1907.81,138.662 "/>
<path clip-path="url(#clip570)" d="M1942.55 158.349 Q1940.75 162.979 1939.03 164.391 Q1937.32 165.803 1934.45 165.803 L1931.05 165.803 L1931.05 162.238 L1933.55 162.238 Q1935.31 162.238 1936.28 161.405 Q1937.25 160.572 1938.43 157.47 L1939.2 155.525 L1928.71 130.016 L1933.22 130.016 L1941.33 150.294 L1949.43 130.016 L1953.94 130.016 L1942.55 158.349 Z" fill="#000000" fill-rule="nonzero" fill-opacity="1" /><path clip-path="url(#clip570)" d="M1961.23 152.007 L1968.87 152.007 L1968.87 125.641 L1960.56 127.308 L1960.56 123.049 L1968.83 121.382 L1973.5 121.382 L1973.5 152.007 L1981.14 152.007 L1981.14 155.942 L1961.23 155.942 L1961.23 152.007 Z" fill="#000000" fill-rule="nonzero" fill-opacity="1" /></svg>
