<?xml version="1.0" encoding="utf-8"?>
<svg xmlns="http://www.w3.org/2000/svg" xmlns:xlink="http://www.w3.org/1999/xlink" width="528" height="336" viewBox="0 0 2112 1344">
<defs>
  <clipPath id="clip630">
    <rect x="0" y="0" width="2112" height="1344"/>
  </clipPath>
</defs>
<path clip-path="url(#clip630)" d="M0 1344 L2112 1344 L2112 0 L0 0  Z" fill="#ffffff" fill-rule="evenodd" fill-opacity="1"/>
<defs>
  <clipPath id="clip631">
    <rect x="422" y="0" width="1479" height="1344"/>
  </clipPath>
</defs>
<path clip-path="url(#clip630)" d="M167.977 1234.58 L2064.76 1234.58 L2064.76 47.2441 L167.977 47.2441  Z" fill="#ffffff" fill-rule="evenodd" fill-opacity="1"/>
<defs>
  <clipPath id="clip632">
    <rect x="167" y="47" width="1898" height="1188"/>
  </clipPath>
</defs>
<polyline clip-path="url(#clip632)" style="stroke:#000000; stroke-linecap:round; stroke-linejoin:round; stroke-width:2; stroke-opacity:0.1; fill:none" points="221.66,1234.58 221.66,47.2441 "/>
<polyline clip-path="url(#clip632)" style="stroke:#000000; stroke-linecap:round; stroke-linejoin:round; stroke-width:2; stroke-opacity:0.1; fill:none" points="519.895,1234.58 519.895,47.2441 "/>
<polyline clip-path="url(#clip632)" style="stroke:#000000; stroke-linecap:round; stroke-linejoin:round; stroke-width:2; stroke-opacity:0.1; fill:none" points="818.131,1234.58 818.131,47.2441 "/>
<polyline clip-path="url(#clip632)" style="stroke:#000000; stroke-linecap:round; stroke-linejoin:round; stroke-width:2; stroke-opacity:0.1; fill:none" points="1116.37,1234.58 1116.37,47.2441 "/>
<polyline clip-path="url(#clip632)" style="stroke:#000000; stroke-linecap:round; stroke-linejoin:round; stroke-width:2; stroke-opacity:0.1; fill:none" points="1414.6,1234.58 1414.6,47.2441 "/>
<polyline clip-path="url(#clip632)" style="stroke:#000000; stroke-linecap:round; stroke-linejoin:round; stroke-width:2; stroke-opacity:0.1; fill:none" points="1712.84,1234.58 1712.84,47.2441 "/>
<polyline clip-path="url(#clip632)" style="stroke:#000000; stroke-linecap:round; stroke-linejoin:round; stroke-width:2; stroke-opacity:0.1; fill:none" points="2011.07,1234.58 2011.07,47.2441 "/>
<polyline clip-path="url(#clip630)" style="stroke:#000000; stroke-linecap:round; stroke-linejoin:round; stroke-width:4; stroke-opacity:1; fill:none" points="167.977,1234.58 2064.76,1234.58 "/>
<polyline clip-path="url(#clip630)" style="stroke:#000000; stroke-linecap:round; stroke-linejoin:round; stroke-width:4; stroke-opacity:1; fill:none" points="221.66,1234.58 221.66,1215.68 "/>
<polyline clip-path="url(#clip630)" style="stroke:#000000; stroke-linecap:round; stroke-linejoin:round; stroke-width:4; stroke-opacity:1; fill:none" points="519.895,1234.58 519.895,1215.68 "/>
<polyline clip-path="url(#clip630)" style="stroke:#000000; stroke-linecap:round; stroke-linejoin:round; stroke-width:4; stroke-opacity:1; fill:none" points="818.131,1234.58 818.131,1215.68 "/>
<polyline clip-path="url(#clip630)" style="stroke:#000000; stroke-linecap:round; stroke-linejoin:round; stroke-width:4; stroke-opacity:1; fill:none" points="1116.37,1234.58 1116.37,1215.68 "/>
<polyline clip-path="url(#clip630)" style="stroke:#000000; stroke-linecap:round; stroke-linejoin:round; stroke-width:4; stroke-opacity:1; fill:none" points="1414.6,1234.58 1414.6,1215.68 "/>
<polyline clip-path="url(#clip630)" style="stroke:#000000; stroke-linecap:round; stroke-linejoin:round; stroke-width:4; stroke-opacity:1; fill:none" points="1712.84,1234.58 1712.84,1215.68 "/>
<polyline clip-path="url(#clip630)" style="stroke:#000000; stroke-linecap:round; stroke-linejoin:round; stroke-width:4; stroke-opacity:1; fill:none" points="2011.07,1234.58 2011.07,1215.68 "/>
<path clip-path="url(#clip630)" d="M191.128 1277.85 L220.803 1277.85 L220.803 1281.78 L191.128 1281.78 L191.128 1277.85 Z" fill="#000000" fill-rule="nonzero" fill-opacity="1" /><path clip-path="url(#clip630)" d="M245.062 1276.04 Q248.419 1276.76 250.294 1279.03 Q252.192 1281.3 252.192 1284.63 Q252.192 1289.74 248.674 1292.55 Q245.155 1295.35 238.674 1295.35 Q236.498 1295.35 234.183 1294.91 Q231.891 1294.49 229.438 1293.63 L229.438 1289.12 Q231.382 1290.25 233.697 1290.83 Q236.012 1291.41 238.535 1291.41 Q242.933 1291.41 245.225 1289.67 Q247.539 1287.94 247.539 1284.63 Q247.539 1281.57 245.387 1279.86 Q243.257 1278.12 239.438 1278.12 L235.41 1278.12 L235.41 1274.28 L239.623 1274.28 Q243.072 1274.28 244.9 1272.92 Q246.729 1271.53 246.729 1268.93 Q246.729 1266.27 244.831 1264.86 Q242.956 1263.42 239.438 1263.42 Q237.516 1263.42 235.317 1263.84 Q233.118 1264.26 230.479 1265.14 L230.479 1260.97 Q233.141 1260.23 235.456 1259.86 Q237.794 1259.49 239.854 1259.49 Q245.178 1259.49 248.28 1261.92 Q251.382 1264.33 251.382 1268.45 Q251.382 1271.32 249.738 1273.31 Q248.095 1275.28 245.062 1276.04 Z" fill="#000000" fill-rule="nonzero" fill-opacity="1" /><path clip-path="url(#clip630)" d="M489.838 1277.85 L519.513 1277.85 L519.513 1281.78 L489.838 1281.78 L489.838 1277.85 Z" fill="#000000" fill-rule="nonzero" fill-opacity="1" /><path clip-path="url(#clip630)" d="M533.634 1290.74 L549.953 1290.74 L549.953 1294.67 L528.009 1294.67 L528.009 1290.74 Q530.671 1287.99 535.254 1283.36 Q539.861 1278.7 541.041 1277.36 Q543.287 1274.84 544.166 1273.1 Q545.069 1271.34 545.069 1269.65 Q545.069 1266.9 543.124 1265.16 Q541.203 1263.42 538.101 1263.42 Q535.902 1263.42 533.449 1264.19 Q531.018 1264.95 528.24 1266.5 L528.24 1261.78 Q531.064 1260.65 533.518 1260.07 Q535.972 1259.49 538.009 1259.49 Q543.379 1259.49 546.574 1262.17 Q549.768 1264.86 549.768 1269.35 Q549.768 1271.48 548.958 1273.4 Q548.171 1275.3 546.064 1277.89 Q545.486 1278.56 542.384 1281.78 Q539.282 1284.98 533.634 1290.74 Z" fill="#000000" fill-rule="nonzero" fill-opacity="1" /><path clip-path="url(#clip630)" d="M787.888 1277.85 L817.564 1277.85 L817.564 1281.78 L787.888 1281.78 L787.888 1277.85 Z" fill="#000000" fill-rule="nonzero" fill-opacity="1" /><path clip-path="url(#clip630)" d="M828.467 1290.74 L836.105 1290.74 L836.105 1264.37 L827.795 1266.04 L827.795 1261.78 L836.059 1260.11 L840.735 1260.11 L840.735 1290.74 L848.374 1290.74 L848.374 1294.67 L828.467 1294.67 L828.467 1290.74 Z" fill="#000000" fill-rule="nonzero" fill-opacity="1" /><path clip-path="url(#clip630)" d="M1116.37 1263.19 Q1112.76 1263.19 1110.93 1266.76 Q1109.12 1270.3 1109.12 1277.43 Q1109.12 1284.54 1110.93 1288.1 Q1112.76 1291.64 1116.37 1291.64 Q1120 1291.64 1121.81 1288.1 Q1123.64 1284.54 1123.64 1277.43 Q1123.64 1270.3 1121.81 1266.76 Q1120 1263.19 1116.37 1263.19 M1116.37 1259.49 Q1122.18 1259.49 1125.23 1264.1 Q1128.31 1268.68 1128.31 1277.43 Q1128.31 1286.16 1125.23 1290.76 Q1122.18 1295.35 1116.37 1295.35 Q1110.56 1295.35 1107.48 1290.76 Q1104.42 1286.16 1104.42 1277.43 Q1104.42 1268.68 1107.48 1264.1 Q1110.56 1259.49 1116.37 1259.49 Z" fill="#000000" fill-rule="nonzero" fill-opacity="1" /><path clip-path="url(#clip630)" d="M1404.98 1290.74 L1412.62 1290.74 L1412.62 1264.37 L1404.31 1266.04 L1404.31 1261.78 L1412.58 1260.11 L1417.25 1260.11 L1417.25 1290.74 L1424.89 1290.74 L1424.89 1294.67 L1404.98 1294.67 L1404.98 1290.74 Z" fill="#000000" fill-rule="nonzero" fill-opacity="1" /><path clip-path="url(#clip630)" d="M1707.49 1290.74 L1723.81 1290.74 L1723.81 1294.67 L1701.87 1294.67 L1701.87 1290.74 Q1704.53 1287.99 1709.11 1283.36 Q1713.72 1278.7 1714.9 1277.36 Q1717.14 1274.84 1718.02 1273.1 Q1718.93 1271.34 1718.93 1269.65 Q1718.93 1266.9 1716.98 1265.16 Q1715.06 1263.42 1711.96 1263.42 Q1709.76 1263.42 1707.31 1264.19 Q1704.87 1264.95 1702.1 1266.5 L1702.1 1261.78 Q1704.92 1260.65 1707.37 1260.07 Q1709.83 1259.49 1711.87 1259.49 Q1717.24 1259.49 1720.43 1262.17 Q1723.62 1264.86 1723.62 1269.35 Q1723.62 1271.48 1722.81 1273.4 Q1722.03 1275.3 1719.92 1277.89 Q1719.34 1278.56 1716.24 1281.78 Q1713.14 1284.98 1707.49 1290.74 Z" fill="#000000" fill-rule="nonzero" fill-opacity="1" /><path clip-path="url(#clip630)" d="M2015.32 1276.04 Q2018.68 1276.76 2020.55 1279.03 Q2022.45 1281.3 2022.45 1284.63 Q2022.45 1289.74 2018.93 1292.55 Q2015.41 1295.35 2008.93 1295.35 Q2006.76 1295.35 2004.44 1294.91 Q2002.15 1294.49 1999.7 1293.63 L1999.7 1289.12 Q2001.64 1290.25 2003.96 1290.83 Q2006.27 1291.41 2008.79 1291.41 Q2013.19 1291.41 2015.48 1289.67 Q2017.8 1287.94 2017.8 1284.63 Q2017.8 1281.57 2015.65 1279.86 Q2013.52 1278.12 2009.7 1278.12 L2005.67 1278.12 L2005.67 1274.28 L2009.88 1274.28 Q2013.33 1274.28 2015.16 1272.92 Q2016.99 1271.53 2016.99 1268.93 Q2016.99 1266.27 2015.09 1264.86 Q2013.21 1263.42 2009.7 1263.42 Q2007.77 1263.42 2005.58 1263.84 Q2003.38 1264.26 2000.74 1265.14 L2000.74 1260.97 Q2003.4 1260.23 2005.71 1259.86 Q2008.05 1259.49 2010.11 1259.49 Q2015.44 1259.49 2018.54 1261.92 Q2021.64 1264.33 2021.64 1268.45 Q2021.64 1271.32 2020 1273.31 Q2018.35 1275.28 2015.32 1276.04 Z" fill="#000000" fill-rule="nonzero" fill-opacity="1" /><polyline clip-path="url(#clip632)" style="stroke:#000000; stroke-linecap:round; stroke-linejoin:round; stroke-width:2; stroke-opacity:0.1; fill:none" points="167.977,1203.99 2064.76,1203.99 "/>
<polyline clip-path="url(#clip632)" style="stroke:#000000; stroke-linecap:round; stroke-linejoin:round; stroke-width:2; stroke-opacity:0.1; fill:none" points="167.977,835.859 2064.76,835.859 "/>
<polyline clip-path="url(#clip632)" style="stroke:#000000; stroke-linecap:round; stroke-linejoin:round; stroke-width:2; stroke-opacity:0.1; fill:none" points="167.977,467.73 2064.76,467.73 "/>
<polyline clip-path="url(#clip632)" style="stroke:#000000; stroke-linecap:round; stroke-linejoin:round; stroke-width:2; stroke-opacity:0.1; fill:none" points="167.977,99.6011 2064.76,99.6011 "/>
<polyline clip-path="url(#clip630)" style="stroke:#000000; stroke-linecap:round; stroke-linejoin:round; stroke-width:4; stroke-opacity:1; fill:none" points="167.977,1234.58 167.977,47.2441 "/>
<polyline clip-path="url(#clip630)" style="stroke:#000000; stroke-linecap:round; stroke-linejoin:round; stroke-width:4; stroke-opacity:1; fill:none" points="167.977,1203.99 186.875,1203.99 "/>
<polyline clip-path="url(#clip630)" style="stroke:#000000; stroke-linecap:round; stroke-linejoin:round; stroke-width:4; stroke-opacity:1; fill:none" points="167.977,835.859 186.875,835.859 "/>
<polyline clip-path="url(#clip630)" style="stroke:#000000; stroke-linecap:round; stroke-linejoin:round; stroke-width:4; stroke-opacity:1; fill:none" points="167.977,467.73 186.875,467.73 "/>
<polyline clip-path="url(#clip630)" style="stroke:#000000; stroke-linecap:round; stroke-linejoin:round; stroke-width:4; stroke-opacity:1; fill:none" points="167.977,99.6011 186.875,99.6011 "/>
<path clip-path="url(#clip630)" d="M124.353 1189.79 Q120.742 1189.79 118.913 1193.35 Q117.108 1196.89 117.108 1204.02 Q117.108 1211.13 118.913 1214.69 Q120.742 1218.24 124.353 1218.24 Q127.987 1218.24 129.793 1214.69 Q131.622 1211.13 131.622 1204.02 Q131.622 1196.89 129.793 1193.35 Q127.987 1189.79 124.353 1189.79 M124.353 1186.08 Q130.163 1186.08 133.219 1190.69 Q136.297 1195.27 136.297 1204.02 Q136.297 1212.75 133.219 1217.36 Q130.163 1221.94 124.353 1221.94 Q118.543 1221.94 115.464 1217.36 Q112.409 1212.75 112.409 1204.02 Q112.409 1195.27 115.464 1190.69 Q118.543 1186.08 124.353 1186.08 Z" fill="#000000" fill-rule="nonzero" fill-opacity="1" /><path clip-path="url(#clip630)" d="M54.8395 849.204 L62.4784 849.204 L62.4784 822.838 L54.1682 824.505 L54.1682 820.246 L62.4321 818.579 L67.108 818.579 L67.108 849.204 L74.7468 849.204 L74.7468 853.139 L54.8395 853.139 L54.8395 849.204 Z" fill="#000000" fill-rule="nonzero" fill-opacity="1" /><path clip-path="url(#clip630)" d="M94.1912 821.658 Q90.5801 821.658 88.7514 825.223 Q86.9458 828.764 86.9458 835.894 Q86.9458 843 88.7514 846.565 Q90.5801 850.107 94.1912 850.107 Q97.8254 850.107 99.6309 846.565 Q101.46 843 101.46 835.894 Q101.46 828.764 99.6309 825.223 Q97.8254 821.658 94.1912 821.658 M94.1912 817.954 Q100.001 817.954 103.057 822.561 Q106.136 827.144 106.136 835.894 Q106.136 844.621 103.057 849.227 Q100.001 853.81 94.1912 853.81 Q88.381 853.81 85.3023 849.227 Q82.2468 844.621 82.2468 835.894 Q82.2468 827.144 85.3023 822.561 Q88.381 817.954 94.1912 817.954 Z" fill="#000000" fill-rule="nonzero" fill-opacity="1" /><path clip-path="url(#clip630)" d="M124.353 821.658 Q120.742 821.658 118.913 825.223 Q117.108 828.764 117.108 835.894 Q117.108 843 118.913 846.565 Q120.742 850.107 124.353 850.107 Q127.987 850.107 129.793 846.565 Q131.622 843 131.622 835.894 Q131.622 828.764 129.793 825.223 Q127.987 821.658 124.353 821.658 M124.353 817.954 Q130.163 817.954 133.219 822.561 Q136.297 827.144 136.297 835.894 Q136.297 844.621 133.219 849.227 Q130.163 853.81 124.353 853.81 Q118.543 853.81 115.464 849.227 Q112.409 844.621 112.409 835.894 Q112.409 827.144 115.464 822.561 Q118.543 817.954 124.353 817.954 Z" fill="#000000" fill-rule="nonzero" fill-opacity="1" /><path clip-path="url(#clip630)" d="M58.0571 481.075 L74.3765 481.075 L74.3765 485.01 L52.4321 485.01 L52.4321 481.075 Q55.0941 478.32 59.6775 473.691 Q64.2839 469.038 65.4645 467.695 Q67.7098 465.172 68.5894 463.436 Q69.4922 461.677 69.4922 459.987 Q69.4922 457.233 67.5478 455.496 Q65.6265 453.76 62.5247 453.76 Q60.3256 453.76 57.8719 454.524 Q55.4414 455.288 52.6636 456.839 L52.6636 452.117 Q55.4877 450.983 57.9414 450.404 Q60.395 449.825 62.4321 449.825 Q67.8024 449.825 70.9968 452.51 Q74.1913 455.195 74.1913 459.686 Q74.1913 461.816 73.3811 463.737 Q72.5941 465.635 70.4876 468.228 Q69.9089 468.899 66.807 472.117 Q63.7052 475.311 58.0571 481.075 Z" fill="#000000" fill-rule="nonzero" fill-opacity="1" /><path clip-path="url(#clip630)" d="M94.1912 453.529 Q90.5801 453.529 88.7514 457.094 Q86.9458 460.635 86.9458 467.765 Q86.9458 474.871 88.7514 478.436 Q90.5801 481.978 94.1912 481.978 Q97.8254 481.978 99.6309 478.436 Q101.46 474.871 101.46 467.765 Q101.46 460.635 99.6309 457.094 Q97.8254 453.529 94.1912 453.529 M94.1912 449.825 Q100.001 449.825 103.057 454.432 Q106.136 459.015 106.136 467.765 Q106.136 476.492 103.057 481.098 Q100.001 485.681 94.1912 485.681 Q88.381 485.681 85.3023 481.098 Q82.2468 476.492 82.2468 467.765 Q82.2468 459.015 85.3023 454.432 Q88.381 449.825 94.1912 449.825 Z" fill="#000000" fill-rule="nonzero" fill-opacity="1" /><path clip-path="url(#clip630)" d="M124.353 453.529 Q120.742 453.529 118.913 457.094 Q117.108 460.635 117.108 467.765 Q117.108 474.871 118.913 478.436 Q120.742 481.978 124.353 481.978 Q127.987 481.978 129.793 478.436 Q131.622 474.871 131.622 467.765 Q131.622 460.635 129.793 457.094 Q127.987 453.529 124.353 453.529 M124.353 449.825 Q130.163 449.825 133.219 454.432 Q136.297 459.015 136.297 467.765 Q136.297 476.492 133.219 481.098 Q130.163 485.681 124.353 485.681 Q118.543 485.681 115.464 481.098 Q112.409 476.492 112.409 467.765 Q112.409 459.015 115.464 454.432 Q118.543 449.825 124.353 449.825 Z" fill="#000000" fill-rule="nonzero" fill-opacity="1" /><path clip-path="url(#clip630)" d="M68.1959 98.247 Q71.5524 98.9646 73.4274 101.233 Q75.3255 103.502 75.3255 106.835 Q75.3255 111.951 71.807 114.752 Q68.2885 117.552 61.8071 117.552 Q59.6312 117.552 57.3164 117.113 Q55.0247 116.696 52.571 115.839 L52.571 111.326 Q54.5154 112.46 56.8303 113.039 Q59.1451 113.617 61.6682 113.617 Q66.0663 113.617 68.358 111.881 Q70.6728 110.145 70.6728 106.835 Q70.6728 103.779 68.52 102.066 Q66.3904 100.33 62.571 100.33 L58.5432 100.33 L58.5432 96.4877 L62.7561 96.4877 Q66.2052 96.4877 68.0339 95.122 Q69.8626 93.7331 69.8626 91.1405 Q69.8626 88.4785 67.9645 87.0665 Q66.0895 85.6313 62.571 85.6313 Q60.6497 85.6313 58.4506 86.048 Q56.2515 86.4646 53.6127 87.3443 L53.6127 83.1776 Q56.2747 82.4369 58.5895 82.0665 Q60.9275 81.6961 62.9876 81.6961 Q68.3117 81.6961 71.4135 84.1267 Q74.5153 86.5341 74.5153 90.6544 Q74.5153 93.5248 72.8718 95.5155 Q71.2283 97.4831 68.1959 98.247 Z" fill="#000000" fill-rule="nonzero" fill-opacity="1" /><path clip-path="url(#clip630)" d="M94.1912 85.3998 Q90.5801 85.3998 88.7514 88.9646 Q86.9458 92.5063 86.9458 99.6359 Q86.9458 106.742 88.7514 110.307 Q90.5801 113.849 94.1912 113.849 Q97.8254 113.849 99.6309 110.307 Q101.46 106.742 101.46 99.6359 Q101.46 92.5063 99.6309 88.9646 Q97.8254 85.3998 94.1912 85.3998 M94.1912 81.6961 Q100.001 81.6961 103.057 86.3026 Q106.136 90.8859 106.136 99.6359 Q106.136 108.363 103.057 112.969 Q100.001 117.552 94.1912 117.552 Q88.381 117.552 85.3023 112.969 Q82.2468 108.363 82.2468 99.6359 Q82.2468 90.8859 85.3023 86.3026 Q88.381 81.6961 94.1912 81.6961 Z" fill="#000000" fill-rule="nonzero" fill-opacity="1" /><path clip-path="url(#clip630)" d="M124.353 85.3998 Q120.742 85.3998 118.913 88.9646 Q117.108 92.5063 117.108 99.6359 Q117.108 106.742 118.913 110.307 Q120.742 113.849 124.353 113.849 Q127.987 113.849 129.793 110.307 Q131.622 106.742 131.622 99.6359 Q131.622 92.5063 129.793 88.9646 Q127.987 85.3998 124.353 85.3998 M124.353 81.6961 Q130.163 81.6961 133.219 86.3026 Q136.297 90.8859 136.297 99.6359 Q136.297 108.363 133.219 112.969 Q130.163 117.552 124.353 117.552 Q118.543 117.552 115.464 112.969 Q112.409 108.363 112.409 99.6359 Q112.409 90.8859 115.464 86.3026 Q118.543 81.6961 124.353 81.6961 Z" fill="#000000" fill-rule="nonzero" fill-opacity="1" /><polyline clip-path="url(#clip632)" style="stroke:#009af9; stroke-linecap:round; stroke-linejoin:round; stroke-width:4; stroke-opacity:1; fill:none" points="221.66,1200.97 224.642,1199.73 227.625,1197.33 230.607,1197.21 233.589,1196.96 236.572,1196.2 239.554,1192.97 242.536,1191.27 245.519,1190.66 248.501,1189.35 251.483,1188.91 254.466,1186.87 257.448,1186.53 260.43,1183.78 263.413,1180.94 266.395,1179.55 269.378,1178.9 272.36,1176.5 275.342,1174.62 278.325,1173.06 281.307,1169.95 284.289,1168.55 287.272,1168.44 290.254,1167.16 293.236,1165.25 296.219,1162.35 299.201,1159.85 302.183,1158.34 305.166,1155.74 308.148,1154.75 311.131,1152.99 314.113,1150.05 317.095,1148.09 320.078,1147.93 323.06,1145.11 326.042,1141.72 329.025,1141.06 332.007,1137.56 334.989,1136.88 337.972,1133.79 340.954,1131.94 343.936,1129.37 346.919,1127.48 349.901,1126.36 352.883,1123.18 355.866,1120.31 358.848,1118.15 361.831,1114.91 364.813,1112.47 367.795,1109.24 370.778,1108.73 373.76,1107.8 376.742,1106.08 379.725,1105.93 382.707,1104.07 385.689,1100.93 388.672,1100.84 391.654,1100.25 394.636,1099.96 397.619,1099 400.601,1095.98 403.584,1093.3 406.566,1091.63 409.548,1090.89 412.531,1087.87 415.513,1084.27 418.495,1083.31 421.478,1079.73 424.46,1078.36 427.442,1075.56 430.425,1075.2 433.407,1072.54 436.389,1071.96 439.372,1071.55 442.354,1071.39 445.337,1071.34 448.319,1069.81 451.301,1066.5 454.284,1063.3 457.266,1061.42 460.248,1060.35 463.231,1057.69 466.213,1057.41 469.195,1054.83 472.178,1054.03 475.16,1051.77 478.142,1050.27 481.125,1050.03 484.107,1049.41 487.09,1047.57 490.072,1047.09 493.054,1045.49 496.037,1043.26 499.019,1041.42 502.001,1038.29 504.984,1035.25 507.966,1031.9 510.948,1030.2 513.931,1028.7 516.913,1025.77 519.895,1023.91 522.878,1021.81 525.86,1021.4 528.843,1018.69 531.825,1015.65 534.807,1014.51 537.79,1014.27 540.772,1013.02 543.754,1012.03 546.737,1009.05 549.719,1008.37 552.701,1004.93 555.684,1001.55 558.666,1000.35 561.648,999.615 564.631,998.773 567.613,997.446 570.595,994.688 573.578,991.804 576.56,991.588 579.543,989.755 582.525,987.472 585.507,985.319 588.49,982.607 591.472,982.428 594.454,979.283 597.437,977.441 600.419,977.14 603.401,976.184 606.384,976.18 609.366,972.822 612.348,970.45 615.331,969.487 618.313,967.301 621.296,966.53 624.278,965.498 627.26,962.7 630.243,959.169 633.225,957.996 636.207,956.336 639.19,953.113 642.172,951.38 645.154,948.355 648.137,947.033 651.119,943.883 654.101,941.025 657.084,937.631 660.066,934.42 663.049,933.041 666.031,929.978 669.013,928.352 671.996,927.694 674.978,925.697 677.96,922.121 680.943,919.02 683.925,917.605 686.907,914.716 689.89,913.636 692.872,912.957 695.854,910.692 698.837,907.794 701.819,907.202 704.802,906.226 707.784,902.764 710.766,900.896 713.749,899.014 716.731,898.894 719.713,896.033 722.696,893.034 725.678,890.358 728.66,889.107 731.643,887.672 734.625,885.236 737.607,884.831 740.59,881.867 743.572,878.215 746.555,877.375 749.537,875.194 752.519,874.393 755.502,873.769 758.484,873.09 761.466,871.959 764.449,869.578 767.431,867.74 770.413,865.479 773.396,862.419 776.378,861.214 779.36,857.837 782.343,854.798 785.325,853.011 788.307,850.981 791.29,849.312 794.272,848.834 797.255,847.486 800.237,846.252 803.219,844.81 806.202,842.504 809.184,840.362 812.166,839.522 815.149,839.075 818.131,838.539 821.113,835.156 824.096,831.737 827.078,829.967 830.06,827.688 833.043,825.018 836.025,821.66 839.008,818.797 841.99,818.618 844.972,816.628 847.955,815.828 850.937,813.088 853.919,811.76 856.902,811.727 859.884,808.858 862.866,806.238 865.849,805.64 868.831,804.486 871.813,804.152 874.796,802.354 877.778,799.878 880.761,798.612 883.743,796.023 886.725,793.028 889.708,791.094 892.69,790.866 895.672,788.494 898.655,785.658 901.637,785.616 904.619,782.879 907.602,781.498 910.584,780.854 913.566,777.926 916.549,777.304 919.531,774.608 922.514,772.529 925.496,772.416 928.478,771.185 931.461,770.85 934.443,769.985 937.425,769.17 940.408,767.379 943.39,766.507 946.372,765.019 949.355,762.729 952.337,759.555 955.319,757.048 958.302,753.693 961.284,751.64 964.266,747.982 967.249,747.29 970.231,747.239 973.214,744.438 976.196,742.196 979.178,739.597 982.161,739.497 985.143,737.537 988.125,736.852 991.108,735.838 994.09,733.388 997.072,732.659 1000.05,731.563 1003.04,729.723 1006.02,729.712 1009,727.231 1011.98,723.904 1014.97,721.869 1017.95,720.342 1020.93,719.124 1023.91,715.882 1026.9,712.477 1029.88,711.471 1032.86,708.036 1035.84,705.422 1038.83,703.427 1041.81,700.748 1044.79,700.528 1047.77,700.506 1050.75,697.032 1053.74,696.579 1056.72,693.696 1059.7,690.236 1062.68,687.209 1065.67,687.017 1068.65,684.276 1071.63,682.37 1074.61,679.809 1077.6,676.951 1080.58,676.169 1083.56,675.568 1086.54,675.196 1089.53,673.506 1092.51,672.838 1095.49,672.475 1098.47,671.379 1101.45,668.199 1104.44,664.96 1107.42,662.19 1110.4,660.188 1113.38,659.619 1116.37,656.133 1119.35,655.761 1122.33,655.476 1125.31,653.308 1128.3,650.132 1131.28,649.075 1134.26,648.379 1137.24,645.739 1140.23,644.763 1143.21,641.835 1146.19,639.776 1149.17,639.328 1152.15,635.799 1155.14,633.017 1158.12,631.25 1161.1,629.128 1164.08,625.98 1167.07,623.371 1170.05,623.28 1173.03,621.262 1176.01,618.952 1179,615.546 1181.98,614.512 1184.96,614.42 1187.94,612.216 1190.93,610.824 1193.91,609.578 1196.89,607.355 1199.87,606.134 1202.85,604.778 1205.84,604.096 1208.82,601.29 1211.8,600.398 1214.78,600.229 1217.77,597.612 1220.75,595.156 1223.73,594.66 1226.71,591.689 1229.7,590.548 1232.68,589.246 1235.66,586.056 1238.64,584.823 1241.63,584.028 1244.61,581.287 1247.59,580.946 1250.57,577.897 1253.56,576.607 1256.54,574.823 1259.52,573.142 1262.5,570.225 1265.48,568.049 1268.47,568.013 1271.45,566.505 1274.43,566.203 1277.41,563.663 1280.4,562.154 1283.38,561.107 1286.36,560.045 1289.34,556.412 1292.33,553.592 1295.31,551.278 1298.29,548.389 1301.27,547.709 1304.26,545.766 1307.24,543.376 1310.22,541.839 1313.2,538.366 1316.18,538.09 1319.17,536.562 1322.15,535.286 1325.13,532.367 1328.11,529.586 1331.1,526.95 1334.08,526.829 1337.06,524.378 1340.04,521.47 1343.03,519.281 1346.01,517.328 1348.99,513.783 1351.97,512.391 1354.96,510.692 1357.94,508.711 1360.92,507.801 1363.9,504.222 1366.88,501.397 1369.87,498.783 1372.85,496.89 1375.83,494.357 1378.81,493.987 1381.8,493.851 1384.78,490.974 1387.76,488.63 1390.74,487.852 1393.73,486.656 1396.71,486.506 1399.69,484.289 1402.67,482.407 1405.66,479.265 1408.64,476.862 1411.62,473.839 1414.6,473.278 1417.58,470.461 1420.57,469.104 1423.55,467.489 1426.53,467.485 1429.51,464.389 1432.5,462.938 1435.48,459.466 1438.46,458.178 1441.44,455.384 1444.43,453 1447.41,450.796 1450.39,448.603 1453.37,445.416 1456.36,443.236 1459.34,440.253 1462.32,437.834 1465.3,434.738 1468.28,431.96 1471.27,428.767 1474.25,427.529 1477.23,424.902 1480.21,421.335 1483.2,421.221 1486.18,419.79 1489.16,416.942 1492.14,414.043 1495.13,411.854 1498.11,410.638 1501.09,410.374 1504.07,408.354 1507.06,405.602 1510.04,404.095 1513.02,401.701 1516,399.697 1518.98,396.05 1521.97,392.387 1524.95,389.896 1527.93,388.016 1530.91,386.387 1533.9,384.504 1536.88,382.326 1539.86,379.476 1542.84,377.463 1545.83,375.906 1548.81,374.102 1551.79,372.444 1554.77,369.269 1557.76,366.792 1560.74,365.195 1563.72,363.479 1566.7,362.205 1569.68,359.615 1572.67,359.517 1575.65,357.237 1578.63,355.735 1581.61,354.114 1584.6,351.397 1587.58,351.06 1590.56,349.37 1593.54,345.712 1596.53,343.856 1599.51,341.664 1602.49,340.429 1605.47,337.075 1608.46,334.048 1611.44,333.607 1614.42,332.01 1617.4,329.419 1620.38,328.692 1623.37,326.995 1626.35,323.722 1629.33,322.122 1632.31,319.362 1635.3,318.307 1638.28,314.678 1641.26,313.338 1644.24,310.55 1647.23,309.879 1650.21,308.463 1653.19,305.819 1656.17,303.534 1659.16,302.012 1662.14,301.225 1665.12,297.916 1668.1,294.432 1671.08,292.592 1674.07,292.281 1677.05,290.918 1680.03,287.754 1683.01,284.297 1686,284.157 1688.98,281.076 1691.96,280.216 1694.94,279.7 1697.93,277.823 1700.91,274.94 1703.89,273.066 1706.87,270.705 1709.86,269.635 1712.84,266.224 1715.82,265.658 1718.8,262.645 1721.78,260.917 1724.77,258.878 1727.75,257.508 1730.73,255.188 1733.71,254.436 1736.7,253.969 1739.68,250.534 1742.66,248.764 1745.64,245.966 1748.63,243.165 1751.61,239.881 1754.59,239.137 1757.57,235.586 1760.56,232.855 1763.54,232.263 1766.52,228.859 1769.5,226.163 1772.49,225.825 1775.47,224.011 1778.45,221.794 1781.43,218.324 1784.41,216.374 1787.4,214.703 1790.38,212.427 1793.36,211.757 1796.34,210.997 1799.33,209.968 1802.31,207.254 1805.29,204.663 1808.27,203.309 1811.26,201.489 1814.24,199.189 1817.22,197.966 1820.2,195.875 1823.19,194.192 1826.17,190.593 1829.15,189.004 1832.13,188.828 1835.11,187.478 1838.1,186.357 1841.08,184.857 1844.06,184.26 1847.04,182.442 1850.03,181.709 1853.01,178.904 1855.99,177.267 1858.97,176.748 1861.96,175.35 1864.94,174.228 1867.92,171.361 1870.9,169.028 1873.89,165.797 1876.87,162.924 1879.85,159.802 1882.83,158.542 1885.81,155.143 1888.8,151.877 1891.78,150.449 1894.76,150.275 1897.74,150.196 1900.73,149.819 1903.71,146.771 1906.69,146.388 1909.67,143.908 1912.66,141.403 1915.64,139.604 1918.62,139.296 1921.6,135.817 1924.59,135.447 1927.57,132.289 1930.55,129.959 1933.53,127.95 1936.51,127.15 1939.5,124.486 1942.48,120.816 1945.46,120.184 1948.44,119.709 1951.43,118.185 1954.41,116.082 1957.39,112.95 1960.37,109.284 1963.36,107.462 1966.34,106.576 1969.32,103.756 1972.3,101.981 1975.29,100.5 1978.27,98.0835 1981.25,96.4786 1984.23,95.1814 1987.21,93.1052 1990.2,91.8885 1993.18,88.4539 1996.16,87.8656 1999.14,86.6011 2002.13,86.2622 2005.11,83.0121 2008.09,81.188 2011.07,80.8479 "/>
<path clip-path="url(#clip630)" d="M231.203 190.502 L473.311 190.502 L473.311 86.8219 L231.203 86.8219  Z" fill="#ffffff" fill-rule="evenodd" fill-opacity="1"/>
<polyline clip-path="url(#clip630)" style="stroke:#000000; stroke-linecap:round; stroke-linejoin:round; stroke-width:4; stroke-opacity:1; fill:none" points="231.203,190.502 473.311,190.502 473.311,86.8219 231.203,86.8219 231.203,190.502 "/>
<polyline clip-path="url(#clip630)" style="stroke:#009af9; stroke-linecap:round; stroke-linejoin:round; stroke-width:4; stroke-opacity:1; fill:none" points="252.279,138.662 378.731,138.662 "/>
<path clip-path="url(#clip630)" d="M413.648 158.349 Q411.843 162.979 410.13 164.391 Q408.417 165.803 405.547 165.803 L402.144 165.803 L402.144 162.238 L404.644 162.238 Q406.403 162.238 407.375 161.405 Q408.348 160.572 409.528 157.47 L410.292 155.525 L399.806 130.016 L404.32 130.016 L412.422 150.294 L420.523 130.016 L425.037 130.016 L413.648 158.349 Z" fill="#000000" fill-rule="nonzero" fill-opacity="1" /><path clip-path="url(#clip630)" d="M432.329 152.007 L439.968 152.007 L439.968 125.641 L431.658 127.308 L431.658 123.049 L439.921 121.382 L444.597 121.382 L444.597 152.007 L452.236 152.007 L452.236 155.942 L432.329 155.942 L432.329 152.007 Z" fill="#000000" fill-rule="nonzero" fill-opacity="1" /></svg>
